# xmcd
#
# Track frame offsets: 
#        150
#        7676
#        14333
#        24583
#        35795
#        41802
#        48610
#        54233
#        64242
#        73354
#        80709
#        86875
#        91982
#        102510
#        117814
#        125573
#        127338
#        132237
#        137144
#        141893
#        185022
#        192548
#        199205
#        209455
#        220667
#        226674
#        233482
#        239105
#        249114
#        258226
#        265581
#        271594
#        276697
#        287225
#        302521
#        317826
#        325592
#        327352
#
# Disc length: 4425 seconds
#
# Revision: 1
# Processed by: cddbd v1.5.2PL0 Copyright (c) Steve Scherf et al.
# Submitted via: ExactAudioCopy v1.1
#
DISCID=47114726
DTITLE=Music K-8 - Vol 20 No 5
DYEAR=1900
DGENRE=
TTITLE0=He Was a Drummy Boy
TTITLE1=3-4 Meter
TTITLE2=Momma Knows
TTITLE3=Remember to Remember this Memorial Day
TTITLE4=Veggies Are Yummy
TTITLE5=My Guinea Pig
TTITLE6=Partner Warm-Up #7
TTITLE7=Onward! Upward!
TTITLE8=Aloha, My uFriend
TTITLE9=Brush, Brush, Brush
TTITLE10=What's That Smell?
TTITLE11=Los Dias De La Semana
TTITLE12=It's Summer!
TTITLE13=Pizza Love
TTITLE14=Salamander Step Dance
TTITLE15=Salamander Scamper
TTITLE16=One Baby Step
TTITLE17=One Baby Step with solo
TTITLE18=One Baby Step tracks with parts 2 and 3
TTITLE19=MOVE! preview 
TTITLE20=He Was a Drummy Boy Instr
TTITLE21=3-4 Meter Instr
TTITLE22=Momma Knows Instr
TTITLE23=Remember to Remember Instr
TTITLE24=Veggies Are Yummy Instr
TTITLE25=My Guinea Pig Instr
TTITLE26=Partner Warm-Up #7 Instr
TTITLE27=Onward! Upward! Instr
TTITLE28=Aloha, My Friend Instr
TTITLE29=Brush, Brush, Brush Instr
TTITLE30=What's that Smell? Instr
TTITLE31=Los Dias De La Semana Instr
TTITLE32=It's Summer! Instr
TTITLE33=Pizza Love Instr
TTITLE34=Pizza Love Instr with background vocals
TTITLE35=Salamander Step Dance Instr
TTITLE36=Salamander Scamper Instr
TTITLE37=One Baby Step Instr
EXTD=
EXTT0=
EXTT1=
EXTT2=
EXTT3=
EXTT4=
EXTT5=
EXTT6=
EXTT7=
EXTT8=
EXTT9=
EXTT10=
EXTT11=
EXTT12=
EXTT13=
EXTT14=
EXTT15=
EXTT16=
EXTT17=
EXTT18=
EXTT19=
EXTT20=
EXTT21=
EXTT22=
EXTT23=
EXTT24=
EXTT25=
EXTT26=
EXTT27=
EXTT28=
EXTT29=
EXTT30=
EXTT31=
EXTT32=
EXTT33=
EXTT34=
EXTT35=
EXTT36=
EXTT37=
PLAYORDER=
